<?xml version="1.0" encoding="utf-8"?>
<!-- Generator: Adobe Illustrator 28.0.0, SVG Export Plug-In . SVG Version: 6.00 Build 0)  -->
<svg version="1.1" id="Layer_1" xmlns="http://www.w3.org/2000/svg" xmlns:xlink="http://www.w3.org/1999/xlink" x="0px" y="0px"
	 viewBox="0 0 25 30" style="enable-background:new 0 0 25 30;" xml:space="preserve">
<style type="text/css">
	.st0{fill-rule:evenodd;clip-rule:evenodd;fill:#FFFFFF;}
</style>
<g>
	<path class="st0" d="M14,2.9C13.2,2,11.8,2,11,2.9L7.3,7.7L4.8,6.4C4.6,6.2,4.1,6.1,3.9,6.1C2.7,5.9,2,6.8,2,8l0,8.5
		C2,16.9,2,17.3,2,17.7c0,5.6,4.7,10.1,10.5,10.1c5.8,0,10.5-4.5,10.5-10.1c0-2.4-0.8-4.5-2.3-6.3L14,2.9z M11.7,13.2
		c0.4-0.5,1.1-0.5,1.5,0l2.5,3.4c0.8,0.8,1.3,1.8,1.3,3c0,2.4-2,4.3-4.5,4.3S8,22,8,19.6c0-1,0.4-2,1-2.7c0,0,0-0.1,0.1-0.1
		L11.7,13.2z"/>
</g>
</svg>
