<?xml version="1.0" encoding="UTF-8"?>
<svg id="Layer_1" data-name="Layer 1" xmlns="http://www.w3.org/2000/svg" viewBox="0 0 415.78 450.07">
  <defs>
    <style>
      .cls-1 {
        fill: rgba(175, 175, 175, .3);
      }

      .cls-1, .cls-2, .cls-3, .cls-4, .cls-5, .cls-6, .cls-7, .cls-8 {
        stroke-width: 0px;
      }

      .cls-2 {
        fill: #ffde00;
        fill-rule: evenodd;
      }

      .cls-3 {
        fill: #4b4b4b;
      }

      .cls-4 {
        fill: #58cc02;
      }

      .cls-5 {
        fill: #89e219;
      }

      .cls-6 {
        fill: #f49000;
      }

      .cls-7 {
        fill: #fff;
      }

      .cls-8 {
        fill: #ffc200;
      }
    </style>
  </defs>
  <path class="cls-1" d="m394.36,306.64c0,79.22-82.48,143.43-184.22,143.43S25.93,385.85,25.93,306.64s82.48-143.43,184.21-143.43,184.22,64.22,184.22,143.43Z"/>
  <path class="cls-6" d="m129.89,335.5c9.22-11.74,26.21-13.78,37.94-4.56h0c11.74,9.22,13.78,26.21,4.56,37.94l-11.35,14.45c-9.22,11.74-26.21,13.78-37.94,4.56h0c-11.74-9.22-13.78-26.21-4.56-37.94l11.35-14.45Z"/>
  <path class="cls-6" d="m287.98,335.5c-9.22-11.74-26.21-13.78-37.94-4.56h0c-11.74,9.22-13.78,26.21-4.56,37.94l11.35,14.45c9.22,11.74,26.21,13.78,37.94,4.56h0c11.74-9.22,13.78-26.21,4.56-37.94l-11.35-14.45Z"/>
  <path class="cls-4" d="m157.45,9.33c14.66,5.23,30.02,8.7,50.44,8.7s35.78-3.48,50.44-8.7c13.38-4.77,26.18-9.33,41.72-9.33,52.09,0,68.78,58.43,68.12,77.63v136.73c0,133.43-108.52,169.45-160.27,170.79-51.76-1.34-160.27-37.36-160.27-170.79V77.63C46.95,58.43,63.65,0,115.73,0c15.54,0,28.33,4.56,41.72,9.33Z"/>
  <path class="cls-4" d="m0,278.32c0-12.69,35.17-77.58,52.75-112l29.75,109c-4.17,10.08-18.95,30.25-44.75,30.25-32.25,0-37.75-17.88-37.75-27.25Z"/>
  <path class="cls-4" d="m415.78,278.32c0-12.69-35.17-77.58-52.75-112l-29.75,109c4.17,10.08,18.95,30.25,44.75,30.25,32.25,0,37.75-17.88,37.75-27.25Z"/>
  <path class="cls-5" d="m293.91,113.18c-9.02,0-37.83,70.63-83.66,70.63s-68.77-68.5-83.04-68.5c-13.02,0-9.89,19.16-9.26,26.05-4.79-3.95-11.64-10.92-16.9-12.59-5.26-1.67-8.89,9.58-8.89,15.46,0,2.38.25,3.51,1.88,9.52-5.13,4.76-30.53,13.52-30.53,53.21,0,80.51,42.32,99.29,77.01,99.29,27.75,0,43.7-18.7,47.2-28.05h42.45c3.67,9.47,19.46,28.42,53.22,28.42,55.84,0,70.99-57.85,70.99-99.67,0-33.46-23.44-51.09-29.15-55.72.58-1,1.75-.96,1.75-8.77,0-9.77-4.88-16.71-8.77-16.71s-8.76,5.19-14.4,10.58c0-13.27-.88-23.17-9.89-23.17Z"/>
  <path class="cls-5" d="m193.74,352.64c0-3.98-28.11-9.32-39-9.32-10.14,0,3.51,17.34,19.72,17.34s19.28-5.39,19.28-8.03Z"/>
  <path class="cls-5" d="m224.13,352.64c0-3.98,28.11-9.32,39-9.32,10.14,0-3.51,17.34-19.72,17.34s-19.28-5.39-19.28-8.03Z"/>
  <path class="cls-5" d="m195.74,368.57c-5.12-.89-7.51.48-7.51,3.39,0,4.84,12.33,7.36,21.04,7.36s20.28-3.98,20.28-7.36c0-2.71-2.36-3.59-3.94-3.39-8.39,1.11-25.29.79-29.86,0Z"/>
  <path class="cls-6" d="m233.27,283.25c0,13.25-10.74,23.98-23.98,23.98s-23.98-10.74-23.98-23.98,10.74-23.98,23.98-23.98,23.98,10.74,23.98,23.98Z"/>
  <path class="cls-8" d="m240.73,278.8c0-9.84-15.11-22.37-31.27-22.37-18.85,0-30.33,14.4-30.33,22.37,0,4.8,22.37,20.49,30.33,20.49s31.27-17.92,31.27-20.49Z"/>
  <path class="cls-2" d="m208.57,276.33c-1.56.13-2.77.58-3.13.77-3.46,1.73-7.68.33-9.41-3.14s-.33-7.68,3.14-9.41c3.4-1.7,11.92-4.18,20.02.06,3.43,1.8,4.76,6.03,2.96,9.46-1.8,3.43-6.03,4.75-9.46,2.96-1.19-.62-2.6-.83-4.11-.71Z"/>
  <path class="cls-7" d="m176.21,231.65c0-30.4-22.74-56.11-54.14-56.11-23.1,0-36.41,12.02-36.41,31.84v19.61c0,22.5,12.98,57.3,49.52,61.38,30.02,3.35,41.03-23.35,41.03-35.84v-20.87Z"/>
  <path class="cls-3" d="m165.43,244.99c0-26.08-9.45-36.05-24.85-36.05-21.09,0-18.06,18.22-18.06,28.56,0,24.29,14.34,31.91,25.61,31.91s17.3-6.88,17.3-24.42Z"/>
  <path class="cls-7" d="m137.88,218.28c0,7.46-6.04,13.5-13.5,13.5s-13.5-6.04-13.5-13.5,6.04-13.5,13.5-13.5,13.5,6.04,13.5,13.5Z"/>
  <path class="cls-7" d="m241.66,231.65c0-30.4,22.74-56.11,54.14-56.11,23.1,0,36.41,12.02,36.41,31.84v19.61c0,22.5-12.98,57.3-49.52,61.38-30.02,3.35-41.03-23.35-41.03-35.84v-20.87Z"/>
  <path class="cls-3" d="m252.44,244.99c0-26.08,9.45-36.05,24.85-36.05,21.09,0,18.06,18.22,18.06,28.56,0,24.29-14.34,31.91-25.61,31.91s-17.29-6.88-17.29-24.42Z"/>
  <path class="cls-7" d="m243.98,218.28c0,7.46,6.04,13.5,13.5,13.5s13.5-6.04,13.5-13.5-6.04-13.5-13.5-13.5-13.5,6.04-13.5,13.5Z"/>
</svg>