<?xml version="1.0" encoding="UTF-8"?>
<svg id="Layer_1" data-name="Layer 1" xmlns="http://www.w3.org/2000/svg" viewBox="0 0 441.33 500.59">
  <defs>
    <style>
      .cls-1 {
        fill: rgba(175, 175, 175, .3);
      }

      .cls-1, .cls-2, .cls-3, .cls-4, .cls-5, .cls-6, .cls-7, .cls-8 {
        stroke-width: 0px;
      }

      .cls-2, .cls-3 {
        fill-rule: evenodd;
      }

      .cls-2, .cls-5 {
        fill: #d1d1d1;
      }

      .cls-3 {
        fill: #f4f4f4;
      }

      .cls-4 {
        fill: #959595;
      }

      .cls-6 {
        fill: #bfbfbf;
      }

      .cls-7 {
        fill: #fff;
      }

      .cls-8 {
        fill: #e6e6e6;
      }
    </style>
  </defs>
  <path class="cls-1" d="m252.82,210.28c102.89,0,186.43,65.04,186.43,145.15s-83.54,145.15-186.43,145.15-186.43-65.04-186.43-145.15,83.54-145.15,186.43-145.15Z"/>
  <path class="cls-2" d="m171.75,382.9c4.62-13.01,18.92-19.81,31.93-15.18l21.25,7.55c13.01,4.62,19.81,18.92,15.18,31.93-4.62,13.01-18.92,19.81-31.93,15.18l-21.25-7.55c-13.01-4.62-19.81-18.92-15.18-31.93Z"/>
  <path class="cls-2" d="m411.65,347.72c11.77,7.21,15.47,22.6,8.26,34.38-7.24,11.81-16.85,19.19-24.19,23.52-3.72,2.2-7.07,3.74-9.59,4.76-1.27.52-2.36.91-3.21,1.2-.43.15-.8.27-1.11.36-.15.05-.29.09-.42.13-.06.02-.12.03-.17.05l-.08.02-.05.02s-.02,0-.02,0c-13.27,3.81-27.12-3.86-30.93-17.13-3.77-13.12,3.69-26.82,16.69-30.8.08-.03.24-.09.48-.18.65-.26,1.73-.75,2.99-1.49,2.63-1.55,5.23-3.73,6.98-6.59,7.21-11.77,22.6-15.47,34.38-8.26Z"/>
  <path class="cls-6" d="m13.79,295.02l243.35-82.32c13.04-4.41,26.59,5.12,26.75,18.82.77,65.84-41.63,125.84-105.92,147.59-64.29,21.75-134.49-.15-173.96-52.91-8.22-10.98-3.26-26.77,9.78-31.18Z"/>
  <path class="cls-6" d="m361.72,146.89c25.2,45.34,69.05,117.28,76.71,128.87,7.38,12.7-.1,23.15-13.79,23.9-65.75,3.62-127.52-36.15-152.03-99.44-10.55-27.23-20.59-102.17,1.7-113.57,29.5-15.09,77.36,42.17,87.41,60.24Z"/>
  <path class="cls-6" d="m211.77,43.13c37.74-12.54,34.26-28.54,61.71-38.66,56.35-20.78,84.2,36.58,88.92,55.44l38.22,132.99c37.3,129.77-58.18,195.15-108.15,210.91-50.71,13.17-166.33,8.46-203.62-121.32l-38.22-132.99c-6.02-18.49-12.9-71.07,44.55-94.55,33.54-13.71,88.88-2.62,116.58-11.83Z"/>
  <path class="cls-5" d="m296.52,362.52c-1.71-3.65-29.76,3.57-39.73,8.25-9.29,4.36,10.67,14.38,25.53,7.4,14.11-6.63,15.34-13.24,14.21-15.65Zm27.83-13.08c-1.71-3.65,21.74-20.63,31.72-25.32,9.29-4.36,4.25,17.39-10.6,24.37-14.11,6.63-19.98,3.36-21.12.95Zm-19.14,26.81c-5.07,1.39-6.67,3.67-5.42,6.33,2.08,4.43,16.4,4.39,24.25.4,10.02-5.1,15.05-15.08,13.59-18.18-1.17-2.48-3.71-2.28-5.07-1.41-7.21,4.62-22.82,11.61-27.35,12.85Z"/>
  <path class="cls-5" d="m387.26,146.42l13.36,46.48c5.58,19.42,8.19,37.4,8.42,53.98-5.4,21.06-18.63,38.93-44.73,46.43-32.83,9.44-53.48-4.58-59.7-12.77l-26.91,7.32c-.8,10.07-16.48,38.42-43.47,46.17-33.73,9.7-80.15,3.26-102.65-75.05-9.31-32.41,4.87-48.62,11.83-56.58,1.33-1.52,2.4-2.74,2.99-3.72-3.26-5.39-5.65-10.32-6.32-12.64-1.64-5.72.57-13.78,6.15-13.62,4.26.12,10.29,2.98,15.46,5.44,1.61.76,3.13,1.49,4.5,2.08-.2-.52-.44-1.1-.7-1.75-3.03-7.5-9.23-22.82,2.43-26.18,4.99-1.43,14.04,5.02,25.62,13.29,20.61,14.71,49.25,35.16,77.4,27.07,30.88-8.87,38.54-47.52,43.25-71.27,2.09-10.53,3.6-18.14,6.29-18.91,8.77-2.52,12.39,6.86,16.1,19.77.45-.77.89-1.53,1.32-2.28,3.4-5.91,6.38-11.07,9.73-12.03,3.77-1.09,10.47,4.3,13.2,13.8,1.84,6.39,1.32,7.61.93,8.51-.07.17-.14.33-.19.51.24.1.49.21.78.33,4.55,1.91,15.07,6.31,24.92,15.61Z"/>
  <path class="cls-7" d="m250.29,253.66c-8.5-29.57-37.8-48.22-68.34-39.45-22.47,6.46-32.06,21.87-26.52,41.15,3.77,13.13,2.73,9.49,5.48,19.07,6.29,21.89,28.64,52.1,65.32,45.85,30.13-5.13,33.38-34.17,29.89-46.33l-5.83-20.3Zm64.12-31.47c-7.42-30.85,5.79-60.17,32.7-64.61,19.8-3.27,34.14,7.05,38.98,27.17,3.3,13.7,2.38,9.9,4.78,19.9,5.49,22.84,2.87,59.99-27.46,69.3-24.91,7.64-40.86-17.89-43.91-30.58l-5.1-21.18Z"/>
  <path class="cls-4" d="m323.18,171.59c1.86-2.32,3.96-4.42,6.26-6.25,14.24-2.4,18.69,12.96,21.61,23.06.25.85.48,1.66.71,2.42,7.31,24.28-1.89,33.64-11.07,37.04-9.44,3.49-19.92,2.11-26.02-20.73-.84-3.14-1.48-6.06-1.93-8.78.05-.44.1-.88.16-1.31,1.61.65,3.47.95,5.61.82,8.11-.47,12.89-6.93,11.87-14.65-.66-5.06-3.5-9.36-7.2-11.62Z"/>
  <path class="cls-4" d="m204.44,252.04c-7.12-29.83-16.23-34.68-31.23-30.46-.19.05-.38.11-.57.17,1.62,1.82,2.77,4.09,3.23,6.66,1.33,7.43-3.6,14.53-11.03,15.86-1.42.26-2.83.28-4.19.1.58,4.2,1.67,9.04,3.18,14.61,6.37,23.6,17.56,26.76,28.18,23.82,10.99-3.05,16.07-15.52,12.44-30.75Z"/>
  <path class="cls-5" d="m401.34,207.96c-4.68-12.07-69.11,23.98-97.03,63.21,1.44,26.62,109.34,22.25,97.03-63.21Zm-123.4,66.07s-71.75,116.3-125.52,15.85c6.67-2.76,87.75-29.25,125.52-15.85Z"/>
  <path class="cls-5" d="m288.94,264.69c11.01-3.97,23.53,2.29,27.58,13.71,2.78,7.9,13.78,23.85,8.05,25.95-2.46.91-7.19,1.66-11.39,2.8-11.3,3.05-31.39,1.11-36.73-14.63-3.9-11.48,1.48-23.86,12.48-27.83Z"/>
  <path class="cls-4" d="m332.2,288.13c1.88,5.62.21,12.7-7.35,14.75-6.54,1.76-11.84-2.46-12.84-8.38-1-5.91,2.35-11.53,8.27-12.53,5.91-1,10.03.48,11.93,6.15Z"/>
  <path class="cls-2" d="m326.67,284.81c-1.35-.64-3.26-.82-5.98-.37-4.33.73-7.03,4.86-6.22,9.64.78,4.64,4.78,7.71,9.72,6.38,3.05-.83,4.73-2.58,5.56-4.58.86-2.09.86-4.63.08-6.97m-3.16-4.12c1.25.6,2.37,1.76,3.16,4.12l-3.16-4.12Zm2.15-4.52c2.76,1.31,4.64,3.72,5.76,7.04,1.1,3.29,1.2,7.1-.2,10.47-1.43,3.46-4.36,6.27-8.88,7.49h0c-8.14,2.18-14.74-3.19-15.95-10.37-1.19-7.04,2.82-14.14,10.32-15.41,3.2-.54,6.3-.49,8.96.78Z"/>
  <path class="cls-8" d="m322.59,263.88c-7.17-4.99-15.9-11.74-29.46-6.85-16.42,5.92-20.12,29-17.8,35.43,1.6,4.44,34.58-1.87,46.36-5.29,7.36-2.21,11.95-3.69,12.54-5.69,1.57-3.12-5.73-13.6-11.64-17.59Z"/>
  <path class="cls-3" d="m298.64,274.32c-1.41.7-2.37,1.58-2.64,1.89-2.61,2.93-7.09,3.19-10.02.58-2.93-2.61-3.19-7.09-.58-10.02,2.55-2.86,9.61-8.38,18.79-7.44,3.9.4,6.73,3.89,6.33,7.78-.4,3.9-3.89,6.73-7.79,6.33-1.34-.14-2.74.2-4.1.87Z"/>
</svg>