<?xml version="1.0" encoding="UTF-8"?>
<svg id="Layer_1" data-name="Layer 1" xmlns="http://www.w3.org/2000/svg" viewBox="0 0 342.31 691.96">
  <defs>
    <style>
      .cls-1 {
        fill: rgba(175, 175, 175, .3);
      }

      .cls-1, .cls-2, .cls-3, .cls-4, .cls-5, .cls-6, .cls-7 {
        stroke-width: 0px;
      }

      .cls-2, .cls-3 {
        fill-rule: evenodd;
      }

      .cls-2, .cls-4 {
        fill: #959595;
      }

      .cls-3, .cls-5 {
        fill: #bfbfbf;
      }

      .cls-6 {
        fill: #fff;
      }

      .cls-7 {
        fill: #e5e5e5;
      }
    </style>
  </defs>
  <path class="cls-1" d="m275.67,602.94c0,49.16-51.19,89.02-114.33,89.02s-114.33-39.86-114.33-89.02,51.19-89.02,114.33-89.02,114.33,39.85,114.33,89.02Z"/>
  <path class="cls-4" d="m145.93,563.15c9.98-3.79,21.15,1.23,24.94,11.21h0c3.79,9.98-1.23,21.15-11.21,24.94l-29.97,11.38c-9.98,3.79-21.15-1.23-24.94-11.21h0c-3.79-9.98,1.23-21.15,11.21-24.94l29.97-11.38Z"/>
  <path class="cls-4" d="m194.97,589.77c.93-10.64-6.95-20.01-17.58-20.94h0c-10.64-.93-20.01,6.95-20.94,17.58l-2.76,31.66c-.93,10.64,6.95,20.01,17.58,20.94h0c10.64.92,20.01-6.95,20.94-17.59l2.76-31.66Z"/>
  <path class="cls-4" d="m95.62,491.03c0-13.95,26.54-111.67,35.07-151.19l13.95,48.82c4.26,40.56-.12,136.86-13.76,136.86-17.05,0-35.26-17.05-35.26-34.49Z"/>
  <path class="cls-5" d="m131.07,308.84c0-18.83,15.27-34.1,34.1-34.1h0c18.83,0,34.1,15.27,34.1,34.1v245.66c0,18.83-15.27,34.1-34.1,34.1h0c-18.83,0-34.1-15.27-34.1-34.1v-245.66Z"/>
  <path class="cls-4" d="m236.97,542.29c0-8.8-19.14-107.37-34.01-158.52-3.99-13.73-14.1-9.94-17.25-9.34-6.6,1.27-7.31,1.88-10.35,30.39-5.83,54.72-6.13,134.7-4.85,144.25,1.94,14.53,14.72,20.73,32.94,20.73s33.52-15.5,33.52-27.51Z"/>
  <path class="cls-2" d="m199.27,405.59c-24.44,18.24-51.28,7.81-68.2-4.68v-92.08c0-18.83,15.27-34.1,34.1-34.1s34.1,15.27,34.1,34.1v96.76Z"/>
  <path class="cls-5" d="m322.24,155.05c0,85.63-69.42,155.05-155.05,155.05S12.14,240.68,12.14,155.05,81.56,0,167.19,0s155.05,69.42,155.05,155.05Z"/>
  <path class="cls-7" d="m163.14,347.31c-75.83,0-121.34-40.18-134.61-57.68l-9.51-136.73,47.92-33.48h170.55l77.52,68.36-16.56,86.33c-13.51,22.67-59.48,73.19-135.32,73.19Z"/>
  <path class="cls-6" d="m72.75,253c0-31.15-20.2-49.04-30.3-54.09l-6.52,11.28v40c2.29,4.41,8.63,11.28,20.26,18.32,12.6,7.64,16.56-2.99,16.56-15.51Z"/>
  <path class="cls-6" d="m115.52,295.55c-35.42-8.28-33.12-22.9-33.12-30.66,0-24.67,15.51-33.83,25.55-32.95,8.04.7,35.42,6.17,48.1,8.81v31.54c0,14.98-12.19,29.88-40.52,23.26Z"/>
  <path class="cls-5" d="m82.19,290.48c-1.33,6.17-7.03,10.19-12.75,8.96-5.72-1.23-9.28-7.22-7.95-13.4,1.33-6.17,10.92-16.49,14.21-15.78,3.07.66,7.81,14.05,6.49,20.22Z"/>
  <path class="cls-4" d="m110.66,264.96c0,7.33-4.49,13.27-10.04,13.27s-10.04-5.94-10.04-13.27,4.49-13.27,10.04-13.27,10.04,5.94,10.04,13.27Z"/>
  <path class="cls-4" d="m69.1,246.12c0,7.33-4.54,13.27-10.14,13.27s-10.14-5.94-10.14-13.27,4.54-13.27,10.14-13.27,10.14,5.94,10.14,13.27Z"/>
  <path class="cls-3" d="m155.83,275.77c-26.41.88-57.41-9.15-73.21-15.77,1.9-20.99,15.98-28.88,25.33-28.06,8.03.7,35.41,6.17,48.1,8.81v31.54c0,1.16-.07,2.32-.22,3.47Z"/>
  <path class="cls-3" d="m72.62,256.08c.08-1.21.12-2.45.12-3.71,0-31.15-20.2-49.04-30.3-54.09l-6.52,11.28v21.15c11.65,12.88,27.46,21.58,36.7,25.37Z"/>
  <path class="cls-5" d="m0,262.24c0-47.22,6.94-89.13,13.7-129.54l50.6-39.33,92.68-25.72,159.94,48.63c9.26,33.46,25.4,116.64,25.4,142.36,0,57.97-13.24,84.99-25.22,99.79-9.59,11.84-21.1,4.83-21.1-4.47l-1.41-124.22-7.93-44.75c-22.38,17.77-67.29,50.02-121.91,50.02-86.69,0-103.18-55.84-109.77-90.52-13.04,35.06-13.01,84.4-13.01,131.44,0,8.71.54,16.31,1.04,23.93,1.83,17.15,3.98,26.53,2.08,34.16-1.34,5.4-3.12,11.62-10.4,11.62-17.97,0-34.68-59.45-34.68-83.41Z"/>
  <path class="cls-7" d="m308.68,209.84c0,14.11-11.44,25.55-25.55,25.55s-25.55-11.44-25.55-25.55,11.44-25.55,25.55-25.55,25.55,11.44,25.55,25.55Z"/>
  <path class="cls-3" d="m87.25,312.06c9.14-13.35,23.37-12.02,29.36-9.67,1.63.64,2.44,2.48,1.8,4.11-.64,1.63-2.48,2.44-4.11,1.8-4.4-1.72-14.96-2.67-21.82,7.35-.99,1.44-2.96,1.82-4.41.82-1.45-.99-1.82-2.96-.83-4.41Z"/>
</svg>