<?xml version="1.0" encoding="UTF-8"?>
<svg id="Layer_1" data-name="Layer 1" xmlns="http://www.w3.org/2000/svg" viewBox="0 0 461.12 708.62">
  <defs>
    <style>
      .cls-1 {
        fill: rgba(175, 175, 175, .3);
      }

      .cls-1, .cls-2, .cls-3, .cls-4, .cls-5, .cls-6, .cls-7 {
        stroke-width: 0px;
      }

      .cls-2, .cls-3 {
        fill-rule: evenodd;
      }

      .cls-2, .cls-4 {
        fill: #959595;
      }

      .cls-3, .cls-5 {
        fill: #bfbfbf;
      }

      .cls-6 {
        fill: #fff;
      }

      .cls-7 {
        fill: #e5e5e5;
      }
    </style>
  </defs>
  <path class="cls-1" d="m369.32,619.44c0,49.26-51.28,89.18-114.54,89.18s-114.55-39.93-114.55-89.18,51.28-89.18,114.55-89.18,114.54,39.93,114.54,89.18Z"/>
  <path class="cls-4" d="m226.03,592.92c2.46-10.36,12.85-16.78,23.22-14.32,10.37,2.46,16.78,12.85,14.32,23.22l-7.38,31.12c-2.46,10.36-12.85,16.78-23.22,14.32-10.37-2.46-16.78-12.85-14.32-23.22l7.38-31.12Z"/>
  <path class="cls-4" d="m283.25,578.26c-8.74-6.09-20.76-3.94-26.85,4.8-6.09,8.74-3.94,20.77,4.8,26.85l26.02,18.12c8.74,6.09,20.76,3.94,26.85-4.8,6.09-8.74,3.94-20.76-4.8-26.85l-26.02-18.12Z"/>
  <path class="cls-5" d="m222.21,413.99l63.67,8.36s.06,49.67.09,74.5c.03,24,.09,71.99.09,71.99,0,17.65-14.31,31.96-31.97,31.96s-31.97-14.31-31.97-31.96v-71.07c0-24.57.09-83.79.09-83.79Z"/>
  <path class="cls-4" d="m354.77,430.82c0,38.13-5.1,49.53-12.4,49.53-11.04,0-15.99-24.72-16.99-48.72s7.27-43.73,16.99-47.62c6.57-2.62,12.4,22.82,12.4,46.81Z"/>
  <path class="cls-7" d="m365.88,375.36l-40.5,14.92,5.96,40.55,50.54-18.61-16-36.85Z"/>
  <path class="cls-4" d="m290.88,346.36c15-1,26,11,29,22s5.5,21.92,5.5,21.92l16.99-6.26s-7.49,16.49-7.49,45.34c0,39.11.49,51,7.49,51-5,0-14.71.99-37.49-55-24.34-59.82-15.52-76.7-14.16-78.77.1-.16.16-.23.16-.23Z"/>
  <path class="cls-2" d="m383.88,414.21c1.1,0,2,.9,2,2v14.33l29.48,39.35c.54.72.53,1.72-.03,2.43-.56.71-1.53.96-2.36.61l-47.62-20.29c-.6-.25-1.03-.78-1.17-1.41-.14-.63.04-1.29.47-1.77l17.22-19.02v-14.23c0-1.1.9-2,2-2Zm-.15,20.14l-14.23,15.71,38.19,16.27-23.96-31.98Z"/>
  <path class="cls-4" d="m365.47,447.26l5.53-4.82,1.7,2.43c5.41,6.76,14.7,9.03,22.61,5.51l4.11-1.76,16.18,19.02c4.07,4.99,6.31,9.89,6.4,17.65.23,20.39-2.13,70.84-2.13,70.84-13.08,0-50.17-18.02-61.33-24.84l2.87-76.23c.3-3.06,1.7-5.9,4.05-7.81Z"/>
  <path class="cls-4" d="m361.41,455.07l-6.46,68.21-5.84,61.6c-.15,1.56.65,3.05,2.04,3.78,5.02,2.63,17.82,8.05,32.75,4.52,1.75-.41,2.95-2.03,2.91-3.82l-1.23-58.55-.7-33.44-23.47-42.28Z"/>
  <path class="cls-4" d="m381.88,509.36l-3.92,46.24-5.86,69.13c-.14,1.62.76,3.16,2.24,3.84,19.36,9.01,39.64,6.79,47.37,5.45,1.88-.33,3.22-1.98,3.18-3.88l-1.3-60.78-1.71-80-40,20Z"/>
  <path class="cls-7" d="m404.88,401.54c0,15.69-12.72,28.41-28.41,28.41s-28.41-12.72-28.41-28.41,12.72-28.41,28.41-28.41,28.41,12.72,28.41,28.41Z"/>
  <path class="cls-4" d="m222.21,413.99l15.14-101.48,63.23,9.44-14.71,100.4c-5.93,5.35-17.52,10.38-35.19,7.74-16.22-2.42-24.63-9.72-28.48-16.11Z"/>
  <path class="cls-4" d="m94.88,368.36c0,26,4,54,14,54s20-75,8-104c-22-9-22,50-22,50Z"/>
  <path class="cls-7" d="m84.88,288.36l70,65-19,36-72-66,21-35Z"/>
  <path class="cls-4" d="m117.31,318.47s8.57,84.89-8.43,103.89c0,0,25,4,49-10s42-36,77-36c0,0,19-33,0-33s-78,7-78,7l-39.57-31.89Z"/>
  <path class="cls-2" d="m66.45,347.04l-38.95,25.67,78.79,24.79-39.84-50.46Zm-1.57-3.76v-13.92h4v14.31l48.59,61.55-99.21-31.21,46.61-30.72Z"/>
  <path class="cls-4" d="m15.45,375.28l20.3-12.85s7.13,10.93,28.13,16.93,33.2.03,33.2.03l33.15,34.85c1.08,1.39,1.76,3.04,1.97,4.79l22.02,181.87c.36,2.93-2.03,5.5-4.98,5.31-24.93-1.59-45.98-15.15-52.37-19.68-1.26-.89-1.99-2.33-1.99-3.87v-95.31c-13.08,0-25.91-3.61-37.07-10.43l-.93-.57,3.15,92c.09,2.55-1.86,4.71-4.4,4.9-28.45,2.19-48.57-14.9-54.17-20.3-1-.97-1.53-2.32-1.45-3.72l10.74-166.23c.2-3.2,1.96-6.09,4.7-7.74Z"/>
  <path class="cls-7" d="m94.88,309.69c0,15.69-12.72,28.41-28.41,28.41s-28.41-12.72-28.41-28.41,12.72-28.41,28.41-28.41,28.41,12.72,28.41,28.41Z"/>
  <path class="cls-5" d="m312.88,271.35c57,0,107.69,35.63,104,76-1.25,13.65,12.13,14,19,0,8.27-16.87,41-83,16-208-29.08-145.42-196,132-139,132Z"/>
  <path class="cls-7" d="m455.38,225.53c0,12.99-10.53,23.52-23.52,23.52s-23.52-10.53-23.52-23.52,10.53-23.52,23.52-23.52,23.52,10.53,23.52,23.52Z"/>
  <path class="cls-7" d="m434.16,247.16c0-21.65-3.25-60.79-4.88-77.65l-44.37-39.49-173.03-28.67c-32.09,26.92-64.79,90.44-64.79,145.81,0,69.22,71.43,109.15,146.42,109.15,109.59,0,140.65-78.98,140.65-109.15Z"/>
  <path class="cls-6" d="m203.17,206.87c-5.28-3.11-24.07-15.02-36.71-23.21-3.66-2.37-8.57-.95-10.29,3.06-2.48,5.77-5.6,13.27-9.37,22.54-7.15,17.6,1.99,32.15,20.16,48.51,9.39,8.45,20.46,13.69,29.11,16.8,6.37,2.29,13.21-1.38,15.35-7.79,1.13-3.38,2.25-7.02,3.07-10.38,6.83-28.11-3.33-44.82-11.31-49.52Z"/>
  <path class="cls-6" d="m277.85,236.87c5.94,1.49,27.68,6.19,42.44,9.23,4.27.88,6.77,5.34,5.19,9.4-2.28,5.85-5.32,13.38-9.14,22.63-7.26,17.56-23.99,21.5-48.4,20.41-12.62-.57-24.18-4.61-32.53-8.47-6.14-2.84-8.44-10.25-5.47-16.33,1.57-3.2,3.33-6.59,5.1-9.55,14.87-24.81,33.83-29.58,42.81-27.33Z"/>
  <path class="cls-4" d="m207.28,251.27c-2.48,7.37-10.47,11.34-17.84,8.86-7.37-2.48-11.34-10.47-8.86-17.84,2.48-7.37,10.47-11.34,17.84-8.86,7.37,2.48,11.34,10.47,8.86,17.84Z"/>
  <path class="cls-4" d="m267.57,277.17c-3.26,7.06-11.63,10.14-18.7,6.88s-10.14-11.63-6.88-18.7c3.26-7.06,11.63-10.14,18.7-6.88,7.06,3.26,10.14,11.63,6.88,18.7Z"/>
  <path class="cls-3" d="m235.98,262.68c14.72-23.49,33.08-28.02,41.88-25.82,5.94,1.49,27.68,6.19,42.44,9.23,4.27.88,6.77,5.34,5.19,9.4-2.28,5.85-5.32,13.38-9.14,22.63-.61,1.47-1.28,2.84-2.01,4.12-13.77-1.25-35.71-5.35-61.28-13.61-5.54-1.79-11.24-3.77-17.07-5.96Z"/>
  <path class="cls-3" d="m215.01,254.08c-22.99-10.24-46.99-23.72-69.48-41.17.34-1.21.77-2.43,1.27-3.66,3.77-9.27,6.89-16.77,9.37-22.54,1.72-4.01,6.64-5.43,10.29-3.06,12.64,8.19,31.43,20.1,36.71,23.21,7.76,4.57,17.57,20.49,11.84,47.21Z"/>
  <path class="cls-5" d="m223.01,293.57c.14,7.36-9.76,11.1-16.44,8.01-6.68-3.09-10.59-11.24-6.26-17.19,3.02-4.14,10.08-9.95,15.46-14.21,2.62-2.07,4.45-.19,4.77,1.69,1.35,7.86,2.35,15.24,2.47,21.7Z"/>
  <path class="cls-3" d="m223.26,329.29c-2.4-9.45-11.15-13.91-19.81-13.52-1.6.07-2.95-1.17-3.03-2.77-.07-1.6,1.17-2.96,2.77-3.03,10.58-.47,22.42,5.05,25.69,17.89.4,1.55-.54,3.13-2.1,3.53-1.55.39-3.13-.54-3.53-2.1Z"/>
  <path class="cls-5" d="m185.59,364.07c-4.41-35.3-15.88-163.62,36.29-251.71,0,0,56.33-121.43,0-89-99,57-124,212-102,281,13.1,41.1,42.68,58.94,57.77,65.59,4.04,1.78,8.49-1.5,7.94-5.88Z"/>
  <path class="cls-5" d="m290.62,250.32c97.55,22.13,175.25-42.97,161.25-110.97S409.45,22.03,339.88,4.36c-63-16-118.89,15.49-145.95,39.25-11.05,9.7-11.96,42.56-3.04,79.43,12.92,53.4,46.47,115.21,99.74,127.29Z"/>
</svg>