<?xml version="1.0" encoding="UTF-8"?>
<svg id="Layer_1" data-name="Layer 1" xmlns="http://www.w3.org/2000/svg" viewBox="0 0 42.91 41.32">
  <defs>
    <style>
      .cls-1 {
        fill: #58cc02;
        fill-rule: evenodd;
        stroke-width: 0px;
      }
    </style>
  </defs>
  <path class="cls-1" d="m37.32,19.14c.76,6.46-3.16,12.55-9.34,14.51-6.18,1.97-12.88-.75-15.96-6.47-5.25.22-10.02-2.9-11.9-7.69-.19-.48-.14-1.02.14-1.45.28-.43.74-.71,1.25-.74l7-.43-1.74-5.53c-.46-1.46-.16-3.06.8-4.25.96-1.19,2.46-1.82,3.98-1.68,3.81.36,6.33.35,7.58-.04,1.25-.39,3.29-1.81,6.13-4.26,1.16-1,2.75-1.35,4.22-.93,1.47.42,2.63,1.56,3.09,3.02l1.72,5.48,5.89-3.62c.44-.27.98-.31,1.45-.12.47.2.82.61.94,1.11,1.18,4.97-.9,10.23-5.26,13.09Zm-17.92,17.9l-3.2-1.53c-1.12-.51-2.44-.03-2.97,1.09-.53,1.11-.07,2.45,1.04,2.99l3.2,1.53c1.12.51,2.44.03,2.97-1.09.53-1.11.07-2.45-1.04-2.99h0Zm22.32-9.49c-.52-.3-1.13-.37-1.71-.21-.57.16-1.06.54-1.36,1.06l-1.74,3.09c-.57,1.08-.18,2.42.88,3.02,1.06.6,2.4.25,3.04-.8l1.74-3.09c.61-1.09.23-2.46-.85-3.08h0Z"/>
</svg>